<svg height='300px' width='300px'  fill="#1a1a1a" xmlns="http://www.w3.org/2000/svg" viewBox="0 0 64 64" x="0px" y="0px"><g data-name="book-books-study-education-school-book store"><rect x="10" y="7" width="10" height="7"></rect><rect x="37" y="20" width="4" height="26"></rect><rect x="47" y="10" width="10" height="6"></rect><rect x="22" y="17" width="9" height="29"></rect><path d="M35,19a1,1,0,0,1,1-1h6a1,1,0,0,1,1,1V46h2V13H33V46h2Z"></path><rect x="33" y="4" width="12" height="7"></rect><rect x="47" y="18" width="10" height="3"></rect><rect x="47" y="23" width="10" height="23"></rect><rect x="22" y="9" width="9" height="6"></rect><path d="M54,54V52H12a3,3,0,0,0,0,6H54V56H14V54Z"></path><rect x="10" y="16" width="10" height="4"></rect><rect x="56" y="52" width="2" height="6"></rect><path d="M20,22H10V46H20Zm-2,9H12V29h6Zm0-4H12V25h6Z"></path><path d="M60,48H11a7,7,0,0,0,0,14H60V60H11a5,5,0,0,1,0-10H60Z"></path></g></svg>