<svg height='300px' width='300px'  fill="#1a1a1a" xmlns="http://www.w3.org/2000/svg" xmlns:xlink="http://www.w3.org/1999/xlink" version="1.1" x="0px" y="0px" viewBox="0 0 512 512" enable-background="new 0 0 512 512" xml:space="preserve"><path d="M510.9,437.8c-1.1-2.9-34.3-94.4-34.3-94.4C475,339,368,45,366.4,40.6c-1.6-4.5-4.9-8-9.2-10c-4.3-2-9.1-2.2-13.6-0.6  l-61.1,22.2v-7.6c0-9.8-8-17.8-17.8-17.8h-68.5c-3.8,0-7.4,1.2-10.3,3.3c-2.9-2.1-6.5-3.3-10.3-3.3H107c-3.8,0-7.4,1.2-10.3,3.3  c-2.9-2.1-6.5-3.3-10.3-3.3H17.8C8,26.9,0,34.9,0,44.7c0,4.5,0,411.6,0,422.6c0,9.8,8,17.8,17.8,17.8h68.5c3.8,0,7.4-1.2,10.3-3.3  c2.9,2.1,6.5,3.3,10.3,3.3h51.8h10.8h6c3.8,0,7.4-1.2,10.3-3.3c2.9,2.1,6.5,3.3,10.3,3.3h68.5c9.8,0,17.8-8,17.8-17.8  c0-0.8,0-68.6,0-123.8c0-37.3,0-68.9,0-70c0-63.5,0-148.5,0-159l0.2,0.6v0c15.2,41.8,114.7,315.1,130.4,358.3  c3.4,9.3,13.6,14,22.8,10.6l64.4-23.4C509.5,457.3,514.3,447,510.9,437.8z M15,44.7c0-1.5,1.3-2.8,2.8-2.8h68.5  c1.5,0,2.8,1.3,2.8,2.8v33.9H15V44.7z M15,93.6h74.1v14.5H15V93.6z M15,123.1h74.1v14.5H15V123.1z M15,152.6h74.1v206.8H15V152.6z   M15,374.4h74.1v14.5H15V374.4z M15,403.9h74.1v14.5H15V403.9z M89.1,467.3L89.1,467.3c0,1.5-1.3,2.8-2.8,2.8H17.8  c-1.5,0-2.8-1.3-2.8-2.8v-33.9h74.1V467.3z M104.1,44.7c0-1.5,1.3-2.8,2.8-2.8h68.5c1.5,0,2.8,1.3,2.8,2.8v33.9h-74.1V44.7z   M104.1,93.6h74.1v14.5h-74.1V93.6z M104.1,123.1h74.1v14.5h-74.1V123.1z M104.1,152.6h74.1v206.8h-74.1V152.6z M104.1,374.4h74.1  v14.5h-74.1V374.4z M104.1,403.9h74.1v14.5h-74.1V403.9z M178.3,467.3c0,1.5-1.3,2.8-2.8,2.8h-6h-10.8H107c-1.5,0-2.8-1.3-2.8-2.8  v-33.9h74.1V467.3z M193.3,44.7c0-1.5,1.3-2.8,2.8-2.8h68.5c1.5,0,2.8,1.3,2.8,2.8v33.9h-74.1V44.7z M193.3,93.6h74.1v14.5h-74.1  V93.6z M193.3,123.1h74.1v14.5h-74.1V123.1z M193.3,374.4h74.1v14.5h-74.1V374.4z M193.3,403.9h74.1v14.5h-74.1V403.9z M267.4,467.3  L267.4,467.3c0,1.5-1.3,2.8-2.8,2.8h-68.5c-1.5,0-2.8-1.3-2.8-2.8v-33.9h74.1V467.3z M267.4,359.4h-74.1V152.6h74.1v120.9v70V359.4z   M282.6,71.1c-0.5-1.5,0.2-3.1,1.7-3.6l64.4-23.4c0.3-0.1,0.7-0.2,1-0.2c0.5,0,0.9,0.1,1.2,0.3c0.4,0.2,1.1,0.6,1.5,1.6l11.6,31.8  L294.2,103L282.6,71.1z M299.3,117.1L369,91.7c4.3,11.9,3.3,9.1,5,13.6l-69.7,25.4L299.3,117.1z M309.4,144.8l69.7-25.4l5,13.6  l-69.7,25.4L309.4,144.8z M319.5,172.5l69.7-25.4l70.7,194.3l-69.7,25.4L319.5,172.5z M395.4,381l69.7-25.4c1.2,3.4,3.9,10.8,5,13.6  l-69.7,25.4L395.4,381z M410.4,422.3l-5-13.6l69.7-25.4l5,13.6L410.4,422.3z M495.2,446.5L430.8,470c-1.5,0.5-3.1-0.2-3.6-1.7  l-11.6-31.8l69.7-25.4l11.6,31.8C497.4,444.4,496.6,446,495.2,446.5z"></path></svg>