<svg height='300px' width='300px'  fill="#1a1a1a" xmlns="http://www.w3.org/2000/svg" xmlns:xlink="http://www.w3.org/1999/xlink" version="1.1" x="0px" y="0px" viewBox="0 0 90 90" style="enable-background:new 0 0 90 90;" xml:space="preserve"><path d="M76.72168,75.133789c0.189941-0.213379,0.279297-0.497559,0.246094-0.780762l-1.803772-15.39502h0.810608  c0.288574,0,0.563477-0.125,0.753418-0.342285c0.189941-0.217773,0.276367-0.506348,0.237305-0.79248L70.398926,9.601074  c-0.067383-0.495605-0.490723-0.865234-0.990723-0.865234H27.097168c-4.115723,0-7.468262,3.330078-7.504883,7.4375  l-6.391602,48.241211c-0.114746,0.582031-0.175293,1.183594-0.175293,1.798828c0,5.103516,4.151855,9.255859,9.255371,9.255859  h26.675781v4.794922c0,0.381348,0.216797,0.729492,0.559082,0.897461c0.341797,0.168945,0.750488,0.12793,1.051758-0.105957  l4.348633-3.355957l4.348145,3.355957c0.178223,0.137695,0.394043,0.208496,0.61084,0.208496  c0.150391,0,0.30127-0.033691,0.440918-0.102539C60.658203,80.993652,60.875,80.645508,60.875,80.26416v-4.794922h15.099609  C76.260254,75.469238,76.531738,75.347168,76.72168,75.133789z M34.535828,10.73584h33.999329l6.293945,46.222168H33.14856  L34.535828,10.73584z M21.583008,16.373047c0.005859-0.043457,0.008789-0.087402,0.008789-0.131348  c0-3.036133,2.469727-5.505859,5.505371-5.505859h5.437866l-1.387268,46.222168h-8.867004  c-2.489746,0-4.75293,0.987793-6.417969,2.592773L21.583008,16.373047z M58.875,74.466797  c0,0.000854-0.000488,0.001587-0.000488,0.002441S58.875,74.470825,58.875,74.47168v3.757324l-3.348145-2.583984  c-0.359375-0.27832-0.862305-0.27832-1.22168,0l-3.348633,2.583984V74.47168c0-0.000854,0.000488-0.001587,0.000488-0.002441  s-0.000488-0.001587-0.000488-0.002441v-5.806641H58.875V74.466797z M60.875,73.469238v-4.809082h2.592285  c0.552246,0,1-0.447754,1-1s-0.447754-1-1-1H46.364258c-0.552246,0-1,0.447754-1,1s0.447754,1,1,1h2.592285v4.809082H22.280762  c-4.000488,0-7.255371-3.254883-7.255371-7.255859c0-0.44873,0.041016-0.887695,0.119141-1.313965  c0.012207-0.043945,0.021484-0.088867,0.027344-0.135254l0.002441-0.01709c0.679688-3.300293,3.60791-5.789063,7.106445-5.789063  h44.764221c-0.498413,2.425415-1.312988,8.052429,0.016113,14.51123H60.875z M69.108765,73.469238  c-1.44873-6.616943-0.450928-12.512512-0.015808-14.51123h4.057495l1.700134,14.51123H69.108765z"></path></svg>