<svg height='300px' width='300px'  fill="#1a1a1a" xmlns="http://www.w3.org/2000/svg" viewBox="0 0 64 64" x="0px" y="0px"><g><path d="M9,47H7V24a1,1,0,0,1,.293-.707l10-10A1,1,0,0,1,18,13h3v2H18.414L9,24.414Z"></path><path d="M28.554,23A2,2,0,0,0,31,20.554Z"></path><rect x="21.95" y="16.95" width="10" height="4" transform="translate(-5.506 24.609) rotate(-45.005)"></rect><rect x="21.414" y="14.414" width="4" height="2" transform="translate(-4.042 21.071) rotate(-45)"></rect><path d="M40,49H26v2H56V49H42a3,3,0,0,1,3-3H57V44H45a4.982,4.982,0,0,0-4,2.031A4.982,4.982,0,0,0,37,44H25v2H37A3,3,0,0,1,40,49Z"></path><rect x="4" y="53" width="56" height="2"></rect><rect x="5" y="49" width="12" height="2"></rect><rect x="33.728" y="24.728" width="2" height="4" transform="translate(-8.728 32.385) rotate(-45)"></rect><rect x="35" y="20" width="4" height="2"></rect><rect x="28" y="27" width="2" height="4"></rect></g></svg>