<svg height='300px' width='300px'  fill="#1a1a1a" xmlns="http://www.w3.org/2000/svg" xmlns:xlink="http://www.w3.org/1999/xlink" version="1.1" x="0px" y="0px" viewBox="0 0 1024 1024" style="enable-background:new 0 0 1024 1024;" xml:space="preserve"><g><path d="M699.1,949H81c-5.5,0-10-4.5-10-10V126c0-5.5,4.5-10,10-10h618.1c5.5,0,10,4.5,10,10v41.2   c0,3.8-2.1,7.2-5.5,8.9c-37.6,19.1-66.5,53-79.2,93.1c0,0,0,0,0,0c-4.9,15.4-7.4,31.5-7.4,47.8c0,59.8,33.2,113.9,86.6,141   c3.4,1.7,5.5,5.2,5.5,8.9v229.7c0,2.7-1.1,5.2-2.9,7.1L599.1,810.8v59.4h59.4l33.6-33.6c2.9-2.9,7.2-3.7,10.9-2.2   c3.7,1.5,6.2,5.2,6.2,9.2V939C709.1,944.6,704.6,949,699.1,949z M91,929h598.1v-61.2l-19.4,19.4c-1.9,1.9-4.4,2.9-7.1,2.9h-73.5   c-5.5,0-10-4.5-10-10v-73.5c0-2.7,1.1-5.2,2.9-7.1l107.1-107.1V472.9c-26.5-14.6-48.9-35.8-65-61.5C606.4,383.2,597,350.5,597,317   c0-18.4,2.8-36.5,8.3-53.9l0,0c13.7-43.2,44.1-80.1,83.8-102V136H91V929z"></path><path d="M614.8,276.2H81c-5.5,0-10-4.5-10-10V126c0-5.5,4.5-10,10-10h618.1c5.5,0,10,4.5,10,10v41.2   c0,3.8-2.1,7.2-5.5,8.9c-37.6,19.1-66.5,53-79.2,93.1C623.1,273.4,619.2,276.2,614.8,276.2z M91,256.2h516.7   c14.7-40.2,43.8-74.3,81.4-95.1V136H91V256.2z"></path><path d="M181,179c-5.5,0-10-4.5-10-10V85c0-5.5,4.5-10,10-10s10,4.5,10,10v84C191,174.5,186.6,179,181,179z"></path><path d="M285.5,179c-5.5,0-10-4.5-10-10V85c0-5.5,4.5-10,10-10s10,4.5,10,10v84C295.5,174.5,291.1,179,285.5,179z"></path><path d="M494.6,179c-5.5,0-10-4.5-10-10V85c0-5.5,4.5-10,10-10s10,4.5,10,10v84C504.6,174.5,500.1,179,494.6,179z"></path><path d="M390.1,179c-5.5,0-10-4.5-10-10V85c0-5.5,4.5-10,10-10s10,4.5,10,10v84C400.1,174.5,395.6,179,390.1,179z"></path><path d="M599.1,179c-5.5,0-10-4.5-10-10V85c0-5.5,4.5-10,10-10s10,4.5,10,10v84C609.1,174.5,604.6,179,599.1,179z"></path><path d="M276.8,479.4h-120c-5.5,0-10-4.5-10-10v-120c0-5.5,4.5-10,10-10h120c5.5,0,10,4.5,10,10v120   C286.8,474.9,282.3,479.4,276.8,479.4z M166.8,459.4h100v-100h-100V459.4z"></path><path d="M208.3,439.3L208.3,439.3c-2.7,0-5.2-1.1-7.1-2.9l-16.1-16.1c-3.9-3.9-3.9-10.2,0-14.1   c3.9-3.9,10.2-3.9,14.1,0l9,9l25.9-25.9c3.9-3.9,10.2-3.9,14.1,0c3.9,3.9,3.9,10.2,0,14.1l-32.9,32.9   C213.5,438.2,211,439.3,208.3,439.3z"></path><path d="M600.1,422.8H348.7c-5.5,0-10-4.5-10-10s4.5-10,10-10h251.4c5.5,0,10,4.5,10,10S605.6,422.8,600.1,422.8z"></path><path d="M276.8,670.2h-120c-5.5,0-10-4.5-10-10v-120c0-5.5,4.5-10,10-10h120c5.5,0,10,4.5,10,10v120   C286.8,665.7,282.3,670.2,276.8,670.2z M166.8,650.2h100v-100h-100V650.2z"></path><path d="M600.1,610.2H348.7c-5.5,0-10-4.5-10-10s4.5-10,10-10h251.4c5.5,0,10,4.5,10,10S605.6,610.2,600.1,610.2z"></path><path d="M276.8,861h-120c-5.5,0-10-4.5-10-10V731c0-5.5,4.5-10,10-10h120c5.5,0,10,4.5,10,10v120   C286.8,856.5,282.3,861,276.8,861z M166.8,841h100V741h-100V841z"></path><path d="M610.2,797.5H358.7c-5.5,0-10-4.5-10-10s4.5-10,10-10h251.4c5.5,0,10,4.5,10,10S615.7,797.5,610.2,797.5z"></path><path d="M882.4,670.4c-2.6,0-5.1-1-7.1-2.9l-73.5-73.5c-3.9-3.9-3.9-10.2,0-14.1l47.7-47.7l0,0   c11-11,28.9-11,39.9,0l47.8,47.8c11,11,11,28.9,0,39.9l-47.7,47.7C887.5,669.4,885,670.4,882.4,670.4z M823,586.8l59.4,59.4   l40.6-40.6c3.2-3.2,3.2-8.4,0-11.6l-47.8-47.8c-3.2-3.2-8.4-3.2-11.6,0L823,586.8z"></path><path d="M662.6,890.2h-73.5c-5.5,0-10-4.5-10-10v-73.5c0-2.7,1.1-5.2,2.9-7.1l219.8-219.8c3.9-3.9,10.2-3.9,14.1,0   l73.5,73.5c1.9,1.9,2.9,4.4,2.9,7.1s-1.1,5.2-2.9,7.1L669.7,887.2C667.8,889.1,665.3,890.2,662.6,890.2z M599.1,870.2h59.4   l209.8-209.8L808.9,601L599.1,810.8V870.2z"></path><path d="M637.3,841.9c-2.6,0-5.1-1-7.1-2.9c-3.9-3.9-3.9-10.2,0-14.1l208.3-208.3c3.9-3.9,10.2-3.9,14.1,0   c3.9,3.9,3.9,10.2,0,14.1L644.4,839C642.4,840.9,639.9,841.9,637.3,841.9z"></path><path d="M775,495c-28.3,0-55.4-6.5-80.4-19.2c-28.9-14.6-53.2-36.9-70.5-64.4C606.4,383.2,597,350.5,597,317   c0-18.4,2.8-36.5,8.3-53.9c14.3-45.2,46.9-83.4,89.2-104.9c25.1-12.7,52.1-19.2,80.4-19.2c98.1,0,178,79.8,178,178   C953,415.2,873.1,495,775,495z M775,159c-25.1,0-49.2,5.7-71.4,17c-37.6,19.1-66.5,53-79.2,93.1c-4.9,15.4-7.4,31.5-7.4,47.8   c0,59.8,33.2,113.9,86.6,141c22.2,11.3,46.3,17,71.4,17c87.1,0,158-70.9,158-158C933,229.9,862.1,159,775,159z"></path><path d="M834.3,386.3c-2.6,0-5.1-1-7.1-2.9l-59.3-59.3c-1.9-1.9-2.9-4.4-2.9-7.1v-72.5c0-5.5,4.5-10,10-10   s10,4.5,10,10v68.3l56.4,56.4c3.9,3.9,3.9,10.2,0,14.1C839.4,385.3,836.8,386.3,834.3,386.3z"></path><path d="M172.5,949H81c-5.5,0-10-4.5-10-10v-91.5c0-4,2.4-7.7,6.2-9.2c3.7-1.5,8-0.7,10.9,2.2l91.5,91.5   c2.9,2.9,3.7,7.2,2.2,10.9C180.2,946.6,176.6,949,172.5,949z M91,929h57.4L91,871.7V929z"></path><path d="M197.5,629.4c-2.6,0-5.1-1-7.1-2.9c-3.9-3.9-3.9-10.2,0-14.1l38.5-38.5c3.9-3.9,10.2-3.9,14.1,0   c3.9,3.9,3.9,10.2,0,14.1l-38.5,38.5C202.6,628.4,200.1,629.4,197.5,629.4z"></path><path d="M236,629.4c-2.6,0-5.1-1-7.1-2.9L190.4,588c-3.9-3.9-3.9-10.2,0-14.1c3.9-3.9,10.2-3.9,14.1,0l38.5,38.5   c3.9,3.9,3.9,10.2,0,14.1C241.1,628.4,238.6,629.4,236,629.4z"></path><path d="M654.1,328c-5.5,0-10-4.5-10-10c0-23.5,6.4-46.6,18.4-66.7c2.8-4.7,9-6.3,13.7-3.4c4.7,2.8,6.3,9,3.4,13.7   c-10.2,17-15.6,36.5-15.6,56.4C664.1,323.5,659.7,328,654.1,328z"></path><path d="M705.4,229.7c-3.2,0-6.3-1.5-8.2-4.3c-3.2-4.5-2.1-10.8,2.5-13.9c8.8-6.1,18.3-11.2,28.3-15   c5.2-2,10.9,0.6,12.9,5.8c2,5.2-0.6,10.9-5.8,12.9c-8.4,3.2-16.5,7.5-23.9,12.7C709.4,229.1,707.4,229.7,705.4,229.7z"></path></g></svg>